<svg width="552" height="787" viewBox="0 0 552 787" fill="none" xmlns="http://www.w3.org/2000/svg">
<path d="M335.456 7.24568C336.741 7.56958 338.025 7.89348 339.349 8.2272C389.602 21.1881 432.837 46.5149 470.024 83.8692C471.316 85.1133 472.609 86.3574 473.941 87.6392C520.198 133.435 549.884 203.702 551.818 270.034C552.352 297.548 551.323 323.064 543.566 349.606C543.088 351.253 542.609 352.9 542.116 354.596C507.738 469.862 438.634 575.231 371.445 672.403C369.823 674.759 368.201 677.115 366.58 679.472C361.446 686.916 356.281 694.337 351.103 701.748C350.22 703.014 349.336 704.279 348.425 705.583C335.806 723.627 322.898 741.405 309.639 758.944C307.559 761.712 305.505 764.498 303.464 767.297C296.73 776.407 291.18 783.184 280.201 786.421C271.227 786.58 264.116 785.067 257.219 778.779C253.89 774.975 250.848 771.037 247.831 766.96C246.715 765.484 245.6 764.009 244.45 762.489C241.14 758.055 237.873 753.59 234.62 749.109C231.855 745.316 229.068 741.541 226.279 737.767C214.826 722.24 203.63 706.59 192.887 690.521C189.945 686.126 186.955 681.778 183.902 677.466C168.374 655.505 153.997 632.757 139.552 610.016C134.916 602.72 130.243 595.451 125.547 588.197C78.476 515.332 34.2971 436.29 9.40346 351.95C9.04833 350.749 8.6932 349.549 8.32732 348.312C2.43889 327.393 -0.22646 307.328 0.0150233 285.617C0.0223035 284.443 0.0295838 283.269 0.0370847 282.059C0.171786 263.469 1.1009 245.459 5.29602 227.334C5.59857 226.002 5.90113 224.669 6.21286 223.295C18.4865 170.901 43.0478 125.807 78.8388 87.1298C80.0328 85.7827 81.2269 84.4356 82.4572 83.0477C118.328 43.7176 166.636 20.1033 216.536 7.24568C217.724 6.93019 218.912 6.6147 220.137 6.28964C255.228 -2.57354 300.504 -1.90148 335.456 7.24568ZM204.409 190.144C183.507 213.763 175.451 240.665 176.665 272.403C178.518 299.732 191.279 322.806 210.277 341.455C231.445 359.626 256.173 368.245 283.538 367.342C312.309 364.307 335.508 350.575 354.288 327.648C372.831 302.759 376.926 276.021 374.574 245.268C370.321 217.298 353.608 193.626 332.033 177.101C290.965 148.105 239.925 156.542 204.409 190.144Z" fill="black"/>
</svg>
